<svg xmlns="http://www.w3.org/2000/svg" width="63" height="71" viewBox="0 0 63 71">
    <g fill="none" fill-rule="evenodd">
        <path stroke="#114A77" stroke-width="2.182" d="M42.067 67.55H17.663C7.888 67.55 0 59.664 0 49.889V17.663C0 7.888 7.888 0 17.663 0h24.404C51.843 0 59.73 7.888 59.73 17.663v32.225c0 9.775-7.887 17.663-17.663 17.663z" transform="translate(2 2)"/>
        <g fill="#114A77" fill-rule="nonzero">
            <path d="M7.011 31.146h-.674c-1.079 0-1.955-.876-1.955-1.955V22.18c0-1.079.876-1.955 1.955-1.955h.674c1.079 0 1.955.876 1.955 1.955v7.011c0 1.079-.876 1.955-1.955 1.955M13.348 31.146h-.674c-1.078 0-1.955-.876-1.955-1.955V19.079c0-1.079.877-1.955 1.955-1.955h.674c1.079 0 1.955.876 1.955 1.955V29.19c.068 1.079-.809 1.955-1.955 1.955M19.753 31.146h-.674c-1.079 0-1.955-.876-1.955-1.955v-18c0-1.079.876-1.955 1.955-1.955h.674c1.078 0 1.955.876 1.955 1.955v18c0 1.079-.877 1.955-1.955 1.955M31.888 16.989c-2.764 0-4.99 2.224-4.99 4.989 0 2.764 2.226 4.988 4.99 4.988 2.764 0 4.988-2.224 4.988-4.988 0-2.765-2.224-4.99-4.988-4.99m0 11.866c-3.776 0-6.877-3.101-6.877-6.876 0-3.776 3.101-6.877 6.877-6.877 3.775 0 6.876 3.101 6.876 6.877.067 3.842-3.034 6.876-6.876 6.876M19.82 38.562h24.202c-.741-3.775-5.865-6.742-12.134-6.742-6.203 0-11.326 2.967-12.068 6.742m25.281 1.887H18.81c-.54 0-.944-.404-.944-.943 0-5.326 6.337-9.64 14.157-9.64s14.09 4.314 14.09 9.64c-.067.539-.472.943-1.01.943" transform="translate(2 2) translate(6.742 13.28)"/>
            <path d="M31.888 38.225c-.203 0-.405-.068-.607-.203-.405-.337-.54-.943-.202-1.348l1.28-1.753-.741-3.168c-.405-.068-.742-.472-.742-.944 0-.54.405-.944.944-.944h.54c.471 0 .809.337.943.742l1.012 4.314c.067.27 0 .54-.135.81l-1.55 2.09c-.136.269-.405.404-.742.404" transform="translate(2 2) translate(6.742 13.28)"/>
            <path d="M31.955 38.225c-.27 0-.607-.135-.742-.405l-1.55-2.09c-.202-.202-.202-.539-.135-.809l1.011-4.314c.135-.405.472-.742.944-.742h.54c.539 0 .943.405.943.944 0 .472-.337.809-.741.944l-.742 3.168 1.281 1.753c.337.405.202 1.011-.202 1.348-.27.135-.472.203-.607.203M1.146 19.82c-.404 0-.809-.27-.944-.674-.135-.54.135-1.011.674-1.213.135-.068 11.326-3.506 14.09-13.146.135-.54.674-.81 1.214-.675.54.135.809.675.674 1.214C13.82 16.045 1.955 19.686 1.484 19.82h-.338" transform="translate(2 2) translate(6.742 13.28)"/>
            <path d="M16.517.607l-3.37 3.775c-.203.202-.068.54.201.607L18.27 6c.27.067.472-.202.404-.472L17.124.742c-.135-.27-.405-.338-.607-.135" transform="translate(2 2) translate(6.742 13.28)"/>
        </g>
    </g>
</svg>
