<svg xmlns="http://www.w3.org/2000/svg" width="63" height="71" viewBox="0 0 63 71">
    <g fill="none" fill-rule="evenodd">
        <path stroke="#114A77" stroke-width="2.182" d="M42.067 67.55H17.663C7.888 67.55 0 59.664 0 49.889V17.663C0 7.888 7.888 0 17.663 0h24.404C51.843 0 59.73 7.888 59.73 17.663v32.225c0 9.775-7.887 17.663-17.663 17.663z" transform="translate(2 2)"/>
        <g fill="#114A77" fill-rule="nonzero">
            <path d="M2.562 31.55c.944.068 2.292.338 3.303.607.068 0 .068 0 .135.068l.27.067c3.1.742 9.37 2.36 18.202 4.584.54.135.944.068 1.416-.067l.134-.067 13.82-10.045c.068 0 .068-.068.136-.068.134-.067.337-.202.471-.337.405-.404.607-.944.607-1.483 0-1.079-.809-1.955-1.887-2.09-.338-.067-.472-.067-.742 0-.067 0-.135 0-.27.068-.067 0-.202.067-.27.134-.067 0-.134.068-.134.068l-1.55 1.078-8.428 5.461c-.135.068-.337.135-.472.202h-.876c-.472-.134-2.292-.606-5.326-1.415l-.135-.068c-.674-.202-1.348-.404-2.022-.54l-2.023-.538c-.134 0-.202-.068-.337-.135-.741-.472-1.213-1.349-1.213-2.225 0-1.213.876-2.36 2.09-2.562H23.056c.674 0 1.146-.54 1.146-1.146 0-.674-.54-1.146-1.146-1.146H14.494c-2.36 0-4.045.944-5.46 1.888-.337.27-.674.472-1.012.741-1.618 1.214-3.168 2.36-5.46 2.495V31.55zm22.382 7.753c-.337 0-.607 0-.944-.067h-.135c-8.831-2.225-15.168-3.843-18.27-4.584-.067 0-.202-.068-.202-.068l-.202-.067c-1.348-.337-2.427-.54-2.966-.54-1.079 0-2.023-.876-2.023-2.022v-.404V24.876c-.067-.472.068-1.01.337-1.348.405-.54 1.012-.809 1.618-.809 1.686 0 2.9-.876 4.382-2.022.405-.27.742-.54 1.079-.81 1.55-1.078 3.708-2.359 6.809-2.359 1.146 0 2.09 0 2.831.068h5.73c1.956 0 3.506 1.55 3.506 3.505 0 1.955-1.55 3.506-3.505 3.506h-5.191c-.068.067-.135.135-.135.27 0 .067 0 .134.067.134l1.753.472c.674.135 1.348.337 2.09.54h.135c2.696.674 4.382 1.146 5.056 1.348l8.023-5.191L36.27 21.1c.067 0 .134-.135.202-.135.067 0 .135-.067.27-.135.27-.134.471-.202.674-.27.202-.067.404-.067.606-.134.472-.067.944-.067 1.416 0 2.158.202 3.91 2.09 3.91 4.382 0 1.213-.472 2.292-1.28 3.169l-.068.067c-.202.202-.54.472-.876.674l-13.82 10.045c-.135.135-.405.202-.607.27-.675.202-1.214.27-1.753.27M28.584 6.54c0 3.438-2.764 6.202-6.202 6.202S16.18 9.978 16.18 6.539c0-3.438 2.764-6.202 6.202-6.202s6.202 2.764 6.202 6.202" transform="translate(2 2) translate(8.09 13.955)"/>
        </g>
    </g>
</svg>
