<svg xmlns="http://www.w3.org/2000/svg" width="63" height="71" viewBox="0 0 63 71">
    <g fill="none" fill-rule="evenodd">
        <path stroke="#114A77" stroke-width="2.182" d="M42.067 67.55H17.663C7.888 67.55 0 59.664 0 49.889V17.663C0 7.888 7.888 0 17.663 0h24.404C51.843 0 59.73 7.888 59.73 17.663v32.225c0 9.775-7.887 17.663-17.663 17.663z" transform="translate(2 2)"/>
        <g fill="#114A77" fill-rule="nonzero">
            <path d="M21.573 43.618H4.315c-2.023 0-3.708-1.685-3.708-3.708V3.775C.607 1.753 2.292.067 4.315.067h17.258c2.023 0 3.708 1.686 3.708 3.708v7.888c0 .54-.472 1.011-1.011 1.011-.54 0-1.012-.472-1.012-1.011V3.775c0-.944-.741-1.685-1.685-1.685H4.315c-.944 0-1.686.741-1.686 1.685V39.91c0 .944.742 1.686 1.686 1.686h17.258c.944 0 1.685-.742 1.685-1.686V24.404c0-.539.472-1.01 1.012-1.01.539 0 1.01.471 1.01 1.01v15.574c0 2.022-1.684 3.64-3.707 3.64" transform="translate(2 2) translate(14.157 11.933)"/>
            <path d="M24.27 7.146H1.55c-.539 0-1.01-.472-1.01-1.011 0-.54.471-1.011 1.01-1.011h22.72c.539 0 1.01.472 1.01 1.01 0 .54-.471 1.012-1.01 1.012M24.27 37.079H1.55c-.539 0-1.01-.472-1.01-1.012 0-.539.471-1.01 1.01-1.01h22.72c.539 0 1.01.471 1.01 1.01 0 .54-.471 1.012-1.01 1.012M25.483 16.382L22.989 16.382 22.989 13.955 19.753 13.955 19.753 16.382 17.258 16.382 17.258 19.685 19.753 19.685 19.753 22.112 22.989 22.112 22.989 19.685 25.483 19.685z" transform="translate(2 2) translate(14.157 11.933)"/>
            <path d="M13.955 12.674v13.753l2.764-2.764c.202-.202.472-.27.674-.27h11.46V12.674H13.956zm-1.011 17.191c-.135 0-.27 0-.405-.067-.404-.135-.606-.54-.606-.944V11.663c0-.54.471-1.011 1.01-1.011h16.922c.54 0 1.011.472 1.011 1.01v12.675c0 .54-.472 1.011-1.01 1.011h-12l-4.18 4.18c-.27.202-.473.337-.742.337" transform="translate(2 2) translate(14.157 11.933)"/>
        </g>
    </g>
</svg>
