<svg xmlns="http://www.w3.org/2000/svg" width="60" height="68" viewBox="0 0 60 68">
    <g fill="#114A77">
        <path d="M41.934 67.45H18.066C8.11 67.45 0 59.34 0 49.45V18C0 8.044 8.11 0 18.066 0h23.868C51.89 0 60 8.11 60 18v31.45c0 9.89-8.11 18-18.066 18M18.066 1.517c-9.099 0-16.484 7.385-16.484 16.418v31.45c0 9.034 7.385 16.418 16.484 16.418h23.868c9.099 0 16.484-7.384 16.484-16.417v-31.45c0-9.034-7.385-16.419-16.484-16.419H18.066z"/>
        <g>
            <path d="M1.978 31.45h28.286c-.66-4.615-6.791-8.175-14.176-8.175-7.319 0-13.385 3.626-14.11 8.176m29.275 1.78H1.12c-.462 0-.857-.396-.857-.857C.264 26.44 7.45 21.56 16.22 21.56c8.769 0 15.956 4.814 15.956 10.814-.066.461-.462.857-.923.857M31.385 8.374c1.78 0 3.56.197 5.274.593l1.385-4.154c.132-.395-.066-.791-.462-.923l-5.934-2.11c-.132-.066-.33-.066-.461 0l-5.934 2.11c-.33.132-.528.396-.462.725l1.912 4.22c1.517-.264 3.1-.461 4.682-.461m-4.616 1.978c-.264.659-.395 1.318-.395 2.044 0 2.769 2.307 5.077 5.077 5.077 2.769 0 5.076-2.308 5.076-5.077 0-.726-.131-1.385-.395-2.044-3.099-.66-6.33-.66-9.363 0m4.616 8.571c-3.627 0-6.528-2.967-6.528-6.527 0-.923.198-1.847.594-2.704l-2.11-4.55c0-.065-.066-.131-.066-.197-.198-1.055.395-2.176 1.45-2.505L30.66.33c.462-.198.99-.198 1.45 0l5.935 2.11c1.12.395 1.714 1.648 1.385 2.769L37.978 9.56c-.066.264-.264.462-.396.594.264.66.33 1.384.33 2.176.066 3.692-2.901 6.593-6.527 6.593" transform="translate(7.385 16.945)"/>
            <path d="M44.308 30.264h-12.33c-.396 0-.725-.33-.725-.726 0-.395.33-.725.725-.725h11.538c-.593-3.89-5.802-6.989-12.065-6.989-3.363 0-6.462.857-8.836 2.44-.33.198-.79.132-1.055-.198-.197-.33-.131-.791.198-1.055 2.572-1.714 6-2.703 9.627-2.703 7.516 0 13.648 4.154 13.648 9.23 0 .396-.33.726-.725.726M29.275 4.549L30.527 4.549 30.527 3.231 32.242 3.231 32.242 4.549 33.56 4.549 33.56 6.264 32.242 6.264 32.242 7.516 30.527 7.516 30.527 6.264 29.275 6.264zM25.055 30.66h-1.187c-.264 0-.527-.264-.527-.528s.263-.528.527-.528H24v-1.318c0-.791-.791-1.385-1.78-1.385-.99 0-1.78.66-1.78 1.385v1.318h.131c.264 0 .528.264.528.528s-.264.527-.528.527h-1.186v-2.373c0-1.319 1.252-2.44 2.835-2.44 1.582 0 2.835 1.121 2.835 2.44v2.373z" transform="translate(7.385 16.945)"/>
            <path d="M22.22 26.901c-.264 0-.528-.264-.528-.527V23.67c0-.263.264-.527.528-.527s.527.264.527.527v2.704c0 .263-.198.527-.527.527M10.945 28.154c-.264 0-.396.132-.396.264 0 .131.198.263.396.263s.396-.132.396-.263c.066-.132-.132-.264-.396-.264m0 1.582c-.791 0-1.45-.593-1.45-1.318 0-.726.659-1.32 1.45-1.32.791 0 1.45.594 1.45 1.32 0 .725-.593 1.318-1.45 1.318" transform="translate(7.385 16.945)"/>
            <path d="M10.945 28.154c-.264 0-.527-.264-.527-.528v-3.89c0-.263.263-.527.527-.527s.528.264.528.527v3.89c0 .264-.198.528-.528.528M15.956 22.945l.593.857.594-.857h-1.187zm.593 1.978c-.33 0-.593-.132-.79-.396l-.792-1.12c-.198-.264-.198-.66-.066-.99.198-.33.462-.527.857-.527h1.517c.33 0 .66.198.857.528.198.33.132.659-.066.989l-.791 1.12c-.132.264-.396.396-.726.396z" transform="translate(7.385 16.945)"/>
            <path d="M16.55 27.824c-.132 0-.264-.066-.396-.198l-3.824-4.285c-.198-.198-.198-.528.066-.726.197-.197.527-.197.725.066l3.428 3.89 3.429-3.89c.198-.197.527-.263.725-.066.198.198.264.528.066.726l-3.824 4.285c-.066.132-.264.198-.396.198M16.154 6.462c-3.297 0-5.934 2.637-5.934 5.934 0 3.296 2.637 5.934 5.934 5.934s5.934-2.638 5.934-5.934c0-3.231-2.637-5.934-5.934-5.934m0 13.648c-4.22 0-7.649-3.429-7.649-7.648 0-4.22 3.43-7.649 7.649-7.649 4.22 0 7.648 3.429 7.648 7.649 0 4.153-3.428 7.648-7.648 7.648" transform="translate(7.385 16.945)"/>
        </g>
    </g>
</svg>
