<svg xmlns="http://www.w3.org/2000/svg" width="63" height="71" viewBox="0 0 63 71">
    <g fill="none" fill-rule="evenodd">
        <path stroke="#114A77" stroke-width="2.182" d="M42.067 67.55H17.663C7.888 67.55 0 59.664 0 49.889V17.663C0 7.888 7.888 0 17.663 0h24.404C51.843 0 59.73 7.888 59.73 17.663v32.225c0 9.775-7.887 17.663-17.663 17.663z" transform="translate(2 2)"/>
        <g fill="#114A77" fill-rule="nonzero">
            <path d="M2.764 34.787c1.011.067 2.427.404 3.438.674.068 0 .068 0 .135.067l.27.135c3.236.809 9.91 2.562 19.213 5.056.607.135.944.068 1.483-.067l.135-.068 14.63-11.056c.067-.067.067-.067.134-.067.202-.135.337-.203.472-.405.472-.472.674-1.011.674-1.618 0-1.213-.876-2.157-2.022-2.292-.337-.067-.54-.067-.742 0-.067 0-.202.067-.27.067-.067 0-.202.068-.336.135-.068 0-.135.068-.203.068l-1.618 1.213-8.899 6c-.134.135-.337.202-.539.202s-.404.068-.607 0c-.067 0-.202 0-.27-.067-.539-.135-2.426-.674-5.595-1.55l-.135-.068c-.741-.202-1.415-.404-2.157-.607l-2.09-.606c-.135 0-.27-.068-.337-.135-.809-.54-1.28-1.483-1.28-2.427 0-1.349.943-2.562 2.224-2.832h5.932c.675 0 1.214-.606 1.214-1.28 0-.742-.54-1.281-1.214-1.281h-6.067c-.809 0-1.753-.068-2.966-.068-2.495 0-4.247 1.011-5.73 2.09-.405.27-.742.54-1.08.809-1.752 1.348-3.37 2.63-5.73 2.764V34.787h-.067zm23.73 8.561c-.337 0-.674 0-1.01-.135h-.136C15.978 40.72 9.303 38.966 6 38.09c-.067 0-.202-.068-.202-.068l-.202-.067c-1.416-.337-2.562-.607-3.169-.607-1.146 0-2.09-1.01-2.09-2.224v-.472-7.349c-.067-.539.067-1.078.405-1.55.404-.607 1.078-.944 1.752-.944 1.753 0 3.034-1.011 4.652-2.225.405-.27.81-.606 1.146-.876 1.618-1.214 3.91-2.562 7.214-2.562 1.213 0 2.224 0 3.033.067h6.068c2.09 0 3.708 1.753 3.708 3.91 0 2.158-1.686 3.91-3.708 3.91h-5.46c-.136.068-.136.136-.136.27 0 .068 0 .135.068.203l1.82.472c.674.202 1.416.404 2.157.606h.135c2.831.81 4.652 1.281 5.326 1.483l8.494-5.797 1.55-1.214c.068 0 .203-.135.203-.135.067 0 .135-.134.27-.134.27-.135.472-.27.741-.338.203-.067.405-.134.607-.134.54-.068 1.011-.068 1.483 0 2.292.27 4.113 2.36 4.113 4.854 0 1.28-.472 2.561-1.416 3.438-.337.337-.674.606-1.011.809L28.92 42.472c-.202.135-.404.27-.606.337-.675.472-1.214.54-1.82.54M38.966 7.146c0 3.775-2.966 6.876-6.606 6.876-3.64 0-6.607-3.1-6.607-6.876 0-3.775 2.966-6.876 6.607-6.876 3.707.067 6.606 3.1 6.606 6.876M15.708 7.146c0 2.427-1.888 4.45-4.247 4.45-2.36 0-4.248-1.956-4.248-4.45 0-2.427 1.888-4.45 4.248-4.45 2.36.068 4.247 2.023 4.247 4.45" transform="translate(2 2) translate(6.742 11.933)"/>
        </g>
    </g>
</svg>
